# xmcd
#
# Track frame offsets:
#	150
#	45165
#	65764
#	91904
#	136162
#	157827
#	161411
#	173662
#	232981
#	264124
#
# Disc length: 3939 seconds
#
# Revision: 1
# Processed by: cddbd v1.5.2PL0 Copyright (c) Steve Scherf et al.
# Submitted via: audiograbber 1.83.01
#
DISCID=690f610a
DTITLE=Grateful Dead - 93-03-27 Knickerbocker Arena, Albany NY
DYEAR=1900
DGENRE=
TTITLE0=Space
TTITLE1=The Wheel
TTITLE2=All Along The Watchtower
TTITLE3=Days Between
TTITLE4=One More Saturday Night
TTITLE5=Tuning
TTITLE6=I Fought The Law
TTITLE7=Shakedown Street
TTITLE8=Wang Dang Doodle
TTITLE9=Lazy River Road
EXTD=
EXTT0=
EXTT1=
EXTT2=
EXTT3=
EXTT4=
EXTT5=
EXTT6=
EXTT7=
EXTT8=
EXTT9=
PLAYORDER=
